<?xml version="1.0" encoding="UTF-8"?>
<svg width="28px" height="28px" viewBox="0 0 28 28" version="1.1" xmlns="http://www.w3.org/2000/svg" xmlns:xlink="http://www.w3.org/1999/xlink">
    <!-- Generator: Sketch 58 (84663) - https://sketch.com -->
    <title>fawen_1</title>
    <desc>Created with Sketch.</desc>
    <g id="页面-1" stroke="none" stroke-width="1" fill="none" fill-rule="evenodd">
        <g id="1上传者首页" transform="translate(-18.000000, -175.000000)" fill="#92929D">
            <g id="fawen_1" transform="translate(18.000000, 175.000000)">
                <path d="M21.3407471,13.01425 L27.3179425,19.1255833 C27.5418793,19.3532408 27.6680387,19.6645887 27.6680387,19.9895833 C27.6680387,20.314578 27.5418793,20.6259259 27.3179425,20.8535833 L21.3407471,26.9649167 C20.8740804,27.44225 20.1177586,27.44225 19.6504483,26.9649167 C19.4266737,26.7371689 19.3006271,26.4258548 19.3006271,26.1009167 C19.3006271,25.7759785 19.4266737,25.4646644 19.6504483,25.2369167 L23.5871839,21.2115833 L12.1277816,21.2115833 C11.8128122,21.213712 11.5099273,21.0861601 11.2857617,20.8569892 C11.0615961,20.6278183 10.9345132,20.3158018 10.9324713,19.9895833 C10.9324713,19.31425 11.4673678,18.7675833 12.1277816,18.7675833 L23.5871839,18.7675833 L19.6504483,14.74225 C19.4265115,14.5145926 19.3003521,14.2032446 19.3003521,13.87825 C19.3003521,13.5532554 19.4265115,13.2419074 19.6504483,13.01425 C20.1196799,12.537029 20.8715155,12.537029 21.3407471,13.01425 Z M19.7135287,0.0109166563 C21.8891609,0.0109166563 23.6534828,1.83758331 23.6534828,4.09225 L23.6534828,10.2135833 C23.6534828,10.9646906 23.0655863,11.5735833 22.3403793,11.5735833 C21.6151723,11.5735833 21.0272759,10.9646906 21.0272759,10.2135833 L21.0272759,4.77225 C21.027276,4.23097726 20.8195826,3.71189312 20.4499221,3.32928055 C20.0802617,2.94666799 19.5789414,2.73189622 19.0563333,2.73225 L4.60897702,2.73225 C3.52116651,2.73225 2.63932185,3.64558911 2.63932185,4.77225 L2.63932185,21.77625 C2.63932185,22.9029109 3.52116651,23.81625 4.60897702,23.81625 L9.86267815,23.81625 C10.5882407,23.81625 11.1764253,24.4254412 11.1764253,25.1769167 C11.1764253,25.9283921 10.5882407,26.5375834 9.86267815,26.5375834 L3.9524253,26.5375834 C2.90726146,26.5375834 1.90485579,26.1078206 1.16581335,25.3423838 C0.426770901,24.576947 0.0118275335,23.5387411 0.0118275335,22.45625 L0.0118275335,4.09225 C0.0118275335,1.83825 1.77614944,0.0109166563 3.9524253,0.0109166563 L19.7135287,0.0109166563 L19.7135287,0.0109166563 Z M15.1163793,9.53358334 C15.8415863,9.53358334 16.4294828,10.1424761 16.4294828,10.8935833 C16.4294828,11.6446906 15.8415863,12.2535833 15.1163793,12.2535833 L5.92272414,12.2535833 C5.19751713,12.2535833 4.60962069,11.6446906 4.60962069,10.8935833 C4.60962069,10.1424761 5.19751713,9.53358334 5.92272414,9.53358334 L15.1163793,9.53358334 Z M9.20612643,4.77225 C9.93133344,4.77225 10.5192299,5.38114274 10.5192299,6.13225 C10.5192299,6.88335726 9.93133344,7.49225 9.20612643,7.49225 L5.92272414,7.49225 C5.19751713,7.49225 4.60962069,6.88335726 4.60962069,6.13225 C4.60962069,5.38114274 5.19751713,4.77225 5.92272414,4.77225 L9.20548276,4.77225 L9.20612643,4.77225 Z" id="形状"></path>
            </g>
        </g>
    </g>
</svg>