<?xml version="1.0" encoding="UTF-8"?>
<svg width="28px" height="28px" viewBox="0 0 28 28" version="1.1" xmlns="http://www.w3.org/2000/svg" xmlns:xlink="http://www.w3.org/1999/xlink">
    <!-- Generator: Sketch 58 (84663) - https://sketch.com -->
    <title>shouyeshoujianxiang</title>
    <desc>Created with Sketch.</desc>
    <g id="页面-1" stroke="none" stroke-width="1" fill="none" fill-rule="evenodd">
        <g id="1上传者首页" transform="translate(-18.000000, -116.000000)" fill="#0062FF">
            <g id="shouyeshoujianxiang" transform="translate(18.000000, 116.000000)">
                <path d="M27.138843,27.2372942 C26.9402588,27.677203 26.4996968,27.890625 25.9855055,27.890625 L1.90978329,27.890625 C1.39549873,27.890625 0.955029988,27.5831368 0.756445785,27.1431346 C0.316536965,26.9445504 0.00904873047,26.5039884 0.00904873047,25.9897971 L0.00904873047,1.91435486 C0.00904873047,1.40025692 0.316536965,0.959694887 0.756445785,0.761110656 C0.955309961,0.320828566 1.39559205,0.0137136016 1.90978329,0.0137136016 L25.9854122,0.0137136016 C26.4996968,0.0137136016 26.9401655,0.320828566 27.1387497,0.761110656 C27.5787518,0.959694859 27.8862401,1.40025692 27.8862401,1.91435486 L27.8862401,25.9897971 C27.8862401,26.5040817 27.5788452,27.03871 27.138843,27.2372942 Z M25.3519584,2.54799524 L2.54333037,2.54799524 L2.54333037,17.7534984 L6.3448928,17.7534984 C7.04441689,17.7534984 7.61189365,18.3207886 7.61189365,19.0204993 L7.61189365,21.5554342 L20.2834885,21.5554342 L20.2834885,19.0204993 C20.2834885,18.3207886 20.8507786,17.7534984 21.5506759,17.7534984 L25.3519584,17.7534984 L25.3519584,2.54799524 Z M14.305152,16.2109247 C14.116553,16.3997103 13.8687893,16.4906037 13.6214922,16.4882526 C13.3742885,16.4912569 13.1262449,16.3998036 12.9379258,16.2109247 L8.520827,11.7944791 C8.14876158,11.4220404 8.14876158,10.8180757 8.520827,10.4456369 C8.89307907,10.0737581 9.49685718,10.0737581 9.86901593,10.4456369 L12.6805502,13.2577312 L12.6805502,7.93300545 C12.6805502,7.40826907 13.1059012,6.98329141 13.6308242,6.98329141 C14.1559338,6.98329141 14.5812848,7.40836239 14.5812848,7.93300545 L14.5812848,13.2366409 L17.3716355,10.4461969 C17.7442609,10.0736648 18.3481323,10.0736648 18.7204777,10.4461969 C19.0937563,10.8187289 19.0937563,11.422507 18.7204777,11.7955989 L14.305152,16.2109247 Z" id="形状"></path>
            </g>
        </g>
    </g>
</svg>